# xmcd CD database file
#
# Track frame offsets:
#	150
#	20027
#	63378
#	81223
#	108060
#	125931
#	160029
#	203177
#	224050
#	249949
#	278932
#
# Disc length: 3865 seconds
#
# Revision: 0
# Processed by: cddbd v1.5.2PL0 Copyright (c) Steve Scherf et al.
# Submitted via: CDex 1.70beta2
#
DISCID=a10f170b
DTITLE=University of North Florida Jazz Ensemble - Second Thoughts
DYEAR=2003
DGENRE=Jazz
TTITLE0=Pentangle
TTITLE1=The Beginning and the End
TTITLE2=Tenderly
TTITLE3=Angel Eyes
TTITLE4=Love for Sale
TTITLE5=So Far
TTITLE6=Second Thoughts
TTITLE7=Love Is a Feeling
TTITLE8=A Child Is Born
TTITLE9=Beyond All Limits
TTITLE10=Machito
EXTD=YEAR: 2003
EXTT0=
EXTT1=
EXTT2=
EXTT3=
EXTT4=
EXTT5=
EXTT6=
EXTT7=
EXTT8=
EXTT9=
EXTT10=
PLAYORDER=
